solid naca0012
   facet normal 1.369950e-001 -9.905717e-001 0.000000e+000
      outer loop
         vertex 6.991109e-001 2.998751e-001 -5.000000e-002
         vertex 6.991109e-001 2.998751e-001 5.000000e-002
         vertex 6.953667e-001 2.993617e-001 5.000000e-002
      endloop
   endfacet
   facet normal 1.348937e-001 -9.908600e-001 0.000000e+000
      outer loop
         vertex 6.991109e-001 2.998751e-001 -5.000000e-002
         vertex 6.953667e-001 2.993617e-001 5.000000e-002
         vertex 6.953667e-001 2.993617e-001 -5.000000e-002
      endloop
   endfacet
   facet normal 1.260440e-001 -9.920247e-001 0.000000e+000
      outer loop
         vertex 6.953667e-001 2.993617e-001 -5.000000e-002
         vertex 6.953667e-001 2.993617e-001 5.000000e-002
         vertex 6.811172e-001 2.976050e-001 5.000000e-002
      endloop
   endfacet
   facet normal 1.192899e-001 -9.928595e-001 0.000000e+000
      outer loop
         vertex 6.953667e-001 2.993617e-001 -5.000000e-002
         vertex 6.811172e-001 2.976050e-001 5.000000e-002
         vertex 6.811172e-001 2.976050e-001 -5.000000e-002
      endloop
   endfacet
   facet normal 1.060633e-001 -9.943594e-001 0.000000e+000
      outer loop
         vertex 6.811172e-001 2.976050e-001 -5.000000e-002
         vertex 6.811172e-001 2.976050e-001 5.000000e-002
         vertex 6.667651e-001 2.961194e-001 5.000000e-002
      endloop
   endfacet
   facet normal 9.959120e-002 -9.950284e-001 0.000000e+000
      outer loop
         vertex 6.811172e-001 2.976050e-001 -5.000000e-002
         vertex 6.667651e-001 2.961194e-001 5.000000e-002
         vertex 6.667651e-001 2.961194e-001 -5.000000e-002
      endloop
   endfacet
   facet normal 8.652054e-002 -9.962501e-001 0.000000e+000
      outer loop
         vertex 6.667651e-001 2.961194e-001 -5.000000e-002
         vertex 6.667651e-001 2.961194e-001 5.000000e-002
         vertex 6.546392e-001 2.951010e-001 5.000000e-002
      endloop
   endfacet
   facet normal 7.992186e-002 -9.968012e-001 0.000000e+000
      outer loop
         vertex 6.667651e-001 2.961194e-001 -5.000000e-002
         vertex 6.546392e-001 2.951010e-001 5.000000e-002
         vertex 6.546392e-001 2.951010e-001 -5.000000e-002
      endloop
   endfacet
   facet normal 6.460189e-002 -9.979111e-001 0.000000e+000
      outer loop
         vertex 6.546392e-001 2.951010e-001 -5.000000e-002
         vertex 6.546392e-001 2.951010e-001 5.000000e-002
         vertex 6.430788e-001 2.943940e-001 5.000000e-002
      endloop
   endfacet
   facet normal 5.587824e-002 -9.984376e-001 0.000000e+000
      outer loop
         vertex 6.546392e-001 2.951010e-001 -5.000000e-002
         vertex 6.430788e-001 2.943940e-001 5.000000e-002
         vertex 6.430788e-001 2.943940e-001 -5.000000e-002
      endloop
   endfacet
   facet normal 3.621325e-002 -9.993441e-001 0.000000e+000
      outer loop
         vertex 6.430788e-001 2.943940e-001 -5.000000e-002
         vertex 6.430788e-001 2.943940e-001 5.000000e-002
         vertex 6.330877e-001 2.940763e-001 5.000000e-002
      endloop
   endfacet
   facet normal 2.526986e-002 -9.996806e-001 0.000000e+000
      outer loop
         vertex 6.430788e-001 2.943940e-001 -5.000000e-002
         vertex 6.330877e-001 2.940763e-001 5.000000e-002
         vertex 6.330877e-001 2.940763e-001 -5.000000e-002
      endloop
   endfacet
   facet normal 1.139082e-003 -9.999993e-001 0.000000e+000
      outer loop
         vertex 6.330877e-001 2.940763e-001 -5.000000e-002
         vertex 6.330877e-001 2.940763e-001 5.000000e-002
         vertex 6.247833e-001 2.941114e-001 5.000000e-002
      endloop
   endfacet
   facet normal -1.204909e-002 -9.999274e-001 0.000000e+000
      outer loop
         vertex 6.330877e-001 2.940763e-001 -5.000000e-002
         vertex 6.247833e-001 2.941114e-001 5.000000e-002
         vertex 6.247833e-001 2.941114e-001 -5.000000e-002
      endloop
   endfacet
   facet normal -4.108058e-002 -9.991558e-001 0.000000e+000
      outer loop
         vertex 6.247833e-001 2.941114e-001 -5.000000e-002
         vertex 6.247833e-001 2.941114e-001 5.000000e-002
         vertex 6.179098e-001 2.944381e-001 5.000000e-002
      endloop
   endfacet
   facet normal -5.692193e-002 -9.983786e-001 0.000000e+000
      outer loop
         vertex 6.247833e-001 2.941114e-001 -5.000000e-002
         vertex 6.179098e-001 2.944381e-001 5.000000e-002
         vertex 6.179098e-001 2.944381e-001 -5.000000e-002
      endloop
   endfacet
   facet normal -8.934928e-002 -9.960003e-001 0.000000e+000
      outer loop
         vertex 6.179098e-001 2.944381e-001 -5.000000e-002
         vertex 6.179098e-001 2.944381e-001 5.000000e-002
         vertex 6.129875e-001 2.949134e-001 5.000000e-002
      endloop
   endfacet
   facet normal -1.059334e-001 -9.943733e-001 0.000000e+000
      outer loop
         vertex 6.179098e-001 2.944381e-001 -5.000000e-002
         vertex 6.129875e-001 2.949134e-001 5.000000e-002
         vertex 6.129875e-001 2.949134e-001 -5.000000e-002
      endloop
   endfacet
   facet normal -1.345867e-001 -9.909018e-001 0.000000e+000
      outer loop
         vertex 6.129875e-001 2.949134e-001 -5.000000e-002
         vertex 6.129875e-001 2.949134e-001 5.000000e-002
         vertex 6.103812e-001 2.952814e-001 5.000000e-002
      endloop
   endfacet
   facet normal -1.466717e-001 -9.891852e-001 0.000000e+000
      outer loop
         vertex 6.129875e-001 2.949134e-001 -5.000000e-002
         vertex 6.103812e-001 2.952814e-001 5.000000e-002
         vertex 6.103812e-001 2.952814e-001 -5.000000e-002
      endloop
   endfacet
   facet normal -1.852178e-001 -9.826975e-001 0.000000e+000
      outer loop
         vertex 6.103812e-001 2.952814e-001 -5.000000e-002
         vertex 6.103812e-001 2.952814e-001 5.000000e-002
         vertex 6.065619e-001 2.960400e-001 5.000000e-002
      endloop
   endfacet
   facet normal -2.115877e-001 -9.773590e-001 0.000000e+000
      outer loop
         vertex 6.103812e-001 2.952814e-001 -5.000000e-002
         vertex 6.065619e-001 2.960400e-001 5.000000e-002
         vertex 6.065619e-001 2.960400e-001 -5.000000e-002
      endloop
   endfacet
   facet normal -2.644597e-001 -9.643967e-001 0.000000e+000
      outer loop
         vertex 6.065619e-001 2.960400e-001 -5.000000e-002
         vertex 6.065619e-001 2.960400e-001 5.000000e-002
         vertex 6.043022e-001 2.966848e-001 5.000000e-002
      endloop
   endfacet
   facet normal -2.909531e-001 -9.567373e-001 0.000000e+000
      outer loop
         vertex 6.065619e-001 2.960400e-001 -5.000000e-002
         vertex 6.043022e-001 2.966848e-001 5.000000e-002
         vertex 6.043022e-001 2.966848e-001 -5.000000e-002
      endloop
   endfacet
   facet normal -3.602899e-001 -9.328404e-001 0.000000e+000
      outer loop
         vertex 6.043022e-001 2.966848e-001 -5.000000e-002
         vertex 6.043022e-001 2.966848e-001 5.000000e-002
         vertex 6.023299e-001 2.974804e-001 5.000000e-002
      endloop
   endfacet
   facet normal -4.027071e-001 -9.153289e-001 0.000000e+000
      outer loop
         vertex 6.043022e-001 2.966848e-001 -5.000000e-002
         vertex 6.023299e-001 2.974804e-001 5.000000e-002
         vertex 6.023299e-001 2.974804e-001 -5.000000e-002
      endloop
   endfacet
   facet normal -4.882150e-001 -8.727233e-001 0.000000e+000
      outer loop
         vertex 6.023299e-001 2.974804e-001 -5.000000e-002
         vertex 6.023299e-001 2.974804e-001 5.000000e-002
         vertex 6.012928e-001 2.980848e-001 5.000000e-002
      endloop
   endfacet
   facet normal -5.311357e-001 -8.472868e-001 0.000000e+000
      outer loop
         vertex 6.023299e-001 2.974804e-001 -5.000000e-002
         vertex 6.012928e-001 2.980848e-001 5.000000e-002
         vertex 6.012928e-001 2.980848e-001 -5.000000e-002
      endloop
   endfacet
   facet normal -6.142875e-001 -7.890823e-001 0.000000e+000
      outer loop
         vertex 6.012928e-001 2.980848e-001 -5.000000e-002
         vertex 6.012928e-001 2.980848e-001 5.000000e-002
         vertex 6.007285e-001 2.985425e-001 5.000000e-002
      endloop
   endfacet
   facet normal -6.544017e-001 -7.561471e-001 0.000000e+000
      outer loop
         vertex 6.012928e-001 2.980848e-001 -5.000000e-002
         vertex 6.007285e-001 2.985425e-001 5.000000e-002
         vertex 6.007285e-001 2.985425e-001 -5.000000e-002
      endloop
   endfacet
   facet normal -7.298985e-001 -6.835556e-001 0.000000e+000
      outer loop
         vertex 6.007285e-001 2.985425e-001 -5.000000e-002
         vertex 6.007285e-001 2.985425e-001 5.000000e-002
         vertex 6.003993e-001 2.989099e-001 5.000000e-002
      endloop
   endfacet
   facet normal -7.651902e-001 -6.438043e-001 0.000000e+000
      outer loop
         vertex 6.007285e-001 2.985425e-001 -5.000000e-002
         vertex 6.003993e-001 2.989099e-001 5.000000e-002
         vertex 6.003993e-001 2.989099e-001 -5.000000e-002
      endloop
   endfacet
   facet normal -8.295844e-001 -5.583815e-001 0.000000e+000
      outer loop
         vertex 6.003993e-001 2.989099e-001 -5.000000e-002
         vertex 6.003993e-001 2.989099e-001 5.000000e-002
         vertex 6.002015e-001 2.992193e-001 5.000000e-002
      endloop
   endfacet
   facet normal -8.586008e-001 -5.126448e-001 0.000000e+000
      outer loop
         vertex 6.003993e-001 2.989099e-001 -5.000000e-002
         vertex 6.002015e-001 2.992193e-001 5.000000e-002
         vertex 6.002015e-001 2.992193e-001 -5.000000e-002
      endloop
   endfacet
   facet normal -9.065325e-001 -4.221361e-001 0.000000e+000
      outer loop
         vertex 6.002015e-001 2.992193e-001 -5.000000e-002
         vertex 6.002015e-001 2.992193e-001 5.000000e-002
         vertex 6.000925e-001 2.994677e-001 5.000000e-002
      endloop
   endfacet
   facet normal -9.259560e-001 -3.776315e-001 0.000000e+000
      outer loop
         vertex 6.002015e-001 2.992193e-001 -5.000000e-002
         vertex 6.000925e-001 2.994677e-001 5.000000e-002
         vertex 6.000925e-001 2.994677e-001 -5.000000e-002
      endloop
   endfacet
   facet normal -9.594269e-001 -2.819574e-001 0.000000e+000
      outer loop
         vertex 6.000925e-001 2.994677e-001 -5.000000e-002
         vertex 6.000925e-001 2.994677e-001 5.000000e-002
         vertex 6.000255e-001 2.997193e-001 5.000000e-002
      endloop
   endfacet
   facet normal -9.730403e-001 -2.306349e-001 0.000000e+000
      outer loop
         vertex 6.000925e-001 2.994677e-001 -5.000000e-002
         vertex 6.000255e-001 2.997193e-001 5.000000e-002
         vertex 6.000255e-001 2.997193e-001 -5.000000e-002
      endloop
   endfacet
   facet normal -9.920375e-001 -1.259425e-001 0.000000e+000
      outer loop
         vertex 6.000255e-001 2.997193e-001 -5.000000e-002
         vertex 6.000255e-001 2.997193e-001 5.000000e-002
         vertex 6.000003e-001 2.999707e-001 5.000000e-002
      endloop
   endfacet
   facet normal -9.973639e-001 -7.256194e-002 0.000000e+000
      outer loop
         vertex 6.000255e-001 2.997193e-001 -5.000000e-002
         vertex 6.000003e-001 2.999707e-001 5.000000e-002
         vertex 6.000003e-001 2.999707e-001 -5.000000e-002
      endloop
   endfacet
   facet normal -9.999436e-001 -1.062194e-002 0.000000e+000
      outer loop
         vertex 6.000003e-001 2.999707e-001 -5.000000e-002
         vertex 6.000003e-001 2.999707e-001 5.000000e-002
         vertex 6.000000e-001 3.000098e-001 5.000000e-002
      endloop
   endfacet
   facet normal -9.999978e-001 -2.116026e-003 0.000000e+000
      outer loop
         vertex 6.000003e-001 2.999707e-001 -5.000000e-002
         vertex 6.000000e-001 3.000098e-001 5.000000e-002
         vertex 6.000000e-001 3.000098e-001 -5.000000e-002
      endloop
   endfacet
   facet normal -9.979593e-001 6.385345e-002 0.000000e+000
      outer loop
         vertex 6.000000e-001 3.000098e-001 -5.000000e-002
         vertex 6.000000e-001 3.000098e-001 5.000000e-002
         vertex 6.000253e-001 3.002796e-001 5.000000e-002
      endloop
   endfacet
   facet normal -9.926164e-001 1.212963e-001 0.000000e+000
      outer loop
         vertex 6.000000e-001 3.000098e-001 -5.000000e-002
         vertex 6.000253e-001 3.002796e-001 5.000000e-002
         vertex 6.000253e-001 3.002796e-001 -5.000000e-002
      endloop
   endfacet
   facet normal -9.733825e-001 2.291870e-001 0.000000e+000
      outer loop
         vertex 6.000253e-001 3.002796e-001 -5.000000e-002
         vertex 6.000253e-001 3.002796e-001 5.000000e-002
         vertex 6.000907e-001 3.005272e-001 5.000000e-002
      endloop
   endfacet
   facet normal -9.600756e-001 2.797407e-001 0.000000e+000
      outer loop
         vertex 6.000253e-001 3.002796e-001 -5.000000e-002
         vertex 6.000907e-001 3.005272e-001 5.000000e-002
         vertex 6.000907e-001 3.005272e-001 -5.000000e-002
      endloop
   endfacet
   facet normal -9.261419e-001 3.771752e-001 0.000000e+000
      outer loop
         vertex 6.000907e-001 3.005272e-001 -5.000000e-002
         vertex 6.000907e-001 3.005272e-001 5.000000e-002
         vertex 6.002060e-001 3.007893e-001 5.000000e-002
      endloop
   endfacet
   facet normal -9.056190e-001 4.240921e-001 0.000000e+000
      outer loop
         vertex 6.000907e-001 3.005272e-001 -5.000000e-002
         vertex 6.002060e-001 3.007893e-001 5.000000e-002
         vertex 6.002060e-001 3.007893e-001 -5.000000e-002
      endloop
   endfacet
   facet normal -8.582391e-001 5.132500e-001 0.000000e+000
      outer loop
         vertex 6.002060e-001 3.007893e-001 -5.000000e-002
         vertex 6.002060e-001 3.007893e-001 5.000000e-002
         vertex 6.003877e-001 3.010746e-001 5.000000e-002
      endloop
   endfacet
   facet normal -8.314858e-001 5.555460e-001 0.000000e+000
      outer loop
         vertex 6.002060e-001 3.007893e-001 -5.000000e-002
         vertex 6.003877e-001 3.010746e-001 5.000000e-002
         vertex 6.003877e-001 3.010746e-001 -5.000000e-002
      endloop
   endfacet
   facet normal -7.739467e-001 6.332508e-001 0.000000e+000
      outer loop
         vertex 6.003877e-001 3.010746e-001 -5.000000e-002
         vertex 6.003877e-001 3.010746e-001 5.000000e-002
         vertex 6.006619e-001 3.013919e-001 5.000000e-002
      endloop
   endfacet
   facet normal -7.434055e-001 6.688410e-001 0.000000e+000
      outer loop
         vertex 6.003877e-001 3.010746e-001 -5.000000e-002
         vertex 6.006619e-001 3.013919e-001 5.000000e-002
         vertex 6.006619e-001 3.013919e-001 -5.000000e-002
      endloop
   endfacet
   facet normal -6.742799e-001 7.384758e-001 0.000000e+000
      outer loop
         vertex 6.006619e-001 3.013919e-001 -5.000000e-002
         vertex 6.006619e-001 3.013919e-001 5.000000e-002
         vertex 6.011675e-001 3.018252e-001 5.000000e-002
      endloop
   endfacet
   facet normal -6.353751e-001 7.722036e-001 0.000000e+000
      outer loop
         vertex 6.006619e-001 3.013919e-001 -5.000000e-002
         vertex 6.011675e-001 3.018252e-001 5.000000e-002
         vertex 6.011675e-001 3.018252e-001 -5.000000e-002
      endloop
   endfacet
   facet normal -5.502235e-001 8.350174e-001 0.000000e+000
      outer loop
         vertex 6.011675e-001 3.018252e-001 -5.000000e-002
         vertex 6.011675e-001 3.018252e-001 5.000000e-002
         vertex 6.022067e-001 3.024575e-001 5.000000e-002
      endloop
   endfacet
   facet normal -5.037770e-001 8.638337e-001 0.000000e+000
      outer loop
         vertex 6.011675e-001 3.018252e-001 -5.000000e-002
         vertex 6.022067e-001 3.024575e-001 5.000000e-002
         vertex 6.022067e-001 3.024575e-001 -5.000000e-002
      endloop
   endfacet
   facet normal -4.153828e-001 9.096467e-001 0.000000e+000
      outer loop
         vertex 6.022067e-001 3.024575e-001 -5.000000e-002
         vertex 6.022067e-001 3.024575e-001 5.000000e-002
         vertex 6.040000e-001 3.032115e-001 5.000000e-002
      endloop
   endfacet
   facet normal -3.738652e-001 9.274830e-001 0.000000e+000
      outer loop
         vertex 6.022067e-001 3.024575e-001 -5.000000e-002
         vertex 6.040000e-001 3.032115e-001 5.000000e-002
         vertex 6.040000e-001 3.032115e-001 -5.000000e-002
      endloop
   endfacet
   facet normal -3.005233e-001 9.537745e-001 0.000000e+000
      outer loop
         vertex 6.040000e-001 3.032115e-001 -5.000000e-002
         vertex 6.040000e-001 3.032115e-001 5.000000e-002
         vertex 6.065812e-001 3.039647e-001 5.000000e-002
      endloop
   endfacet
   facet normal -2.690174e-001 9.631354e-001 0.000000e+000
      outer loop
         vertex 6.040000e-001 3.032115e-001 -5.000000e-002
         vertex 6.065812e-001 3.039647e-001 5.000000e-002
         vertex 6.065812e-001 3.039647e-001 -5.000000e-002
      endloop
   endfacet
   facet normal -2.139153e-001 9.768522e-001 0.000000e+000
      outer loop
         vertex 6.065812e-001 3.039647e-001 -5.000000e-002
         vertex 6.065812e-001 3.039647e-001 5.000000e-002
         vertex 6.098855e-001 3.046368e-001 5.000000e-002
      endloop
   endfacet
   facet normal -1.904389e-001 9.816990e-001 0.000000e+000
      outer loop
         vertex 6.065812e-001 3.039647e-001 -5.000000e-002
         vertex 6.098855e-001 3.046368e-001 5.000000e-002
         vertex 6.098855e-001 3.046368e-001 -5.000000e-002
      endloop
   endfacet
   facet normal -1.465367e-001 9.892052e-001 0.000000e+000
      outer loop
         vertex 6.098855e-001 3.046368e-001 -5.000000e-002
         vertex 6.098855e-001 3.046368e-001 5.000000e-002
         vertex 6.144536e-001 3.052547e-001 5.000000e-002
      endloop
   endfacet
   facet normal -1.261359e-001 9.920130e-001 0.000000e+000
      outer loop
         vertex 6.098855e-001 3.046368e-001 -5.000000e-002
         vertex 6.144536e-001 3.052547e-001 5.000000e-002
         vertex 6.144536e-001 3.052547e-001 -5.000000e-002
      endloop
   endfacet
   facet normal -8.934221e-002 9.960010e-001 0.000000e+000
      outer loop
         vertex 6.144536e-001 3.052547e-001 -5.000000e-002
         vertex 6.144536e-001 3.052547e-001 5.000000e-002
         vertex 6.199628e-001 3.056946e-001 5.000000e-002
      endloop
   endfacet
   facet normal -7.296564e-002 9.973345e-001 0.000000e+000
      outer loop
         vertex 6.144536e-001 3.052547e-001 -5.000000e-002
         vertex 6.199628e-001 3.056946e-001 5.000000e-002
         vertex 6.199628e-001 3.056946e-001 -5.000000e-002
      endloop
   endfacet
   facet normal -4.164313e-002 9.991326e-001 0.000000e+000
      outer loop
         vertex 6.199628e-001 3.056946e-001 -5.000000e-002
         vertex 6.199628e-001 3.056946e-001 5.000000e-002
         vertex 6.272670e-001 3.059342e-001 5.000000e-002
      endloop
   endfacet
   facet normal -2.669979e-002 9.996435e-001 0.000000e+000
      outer loop
         vertex 6.199628e-001 3.056946e-001 -5.000000e-002
         vertex 6.272670e-001 3.059342e-001 5.000000e-002
         vertex 6.272670e-001 3.059342e-001 -5.000000e-002
      endloop
   endfacet
   facet normal -2.123705e-004 1.000000e+000 0.000000e+000
      outer loop
         vertex 6.272670e-001 3.059342e-001 -5.000000e-002
         vertex 6.272670e-001 3.059342e-001 5.000000e-002
         vertex 6.353418e-001 3.058816e-001 5.000000e-002
      endloop
   endfacet
   facet normal 1.133066e-002 9.999358e-001 0.000000e+000
      outer loop
         vertex 6.272670e-001 3.059342e-001 -5.000000e-002
         vertex 6.353418e-001 3.058816e-001 5.000000e-002
         vertex 6.353418e-001 3.058816e-001 -5.000000e-002
      endloop
   endfacet
   facet normal 3.257437e-002 9.994693e-001 0.000000e+000
      outer loop
         vertex 6.353418e-001 3.058816e-001 -5.000000e-002
         vertex 6.353418e-001 3.058816e-001 5.000000e-002
         vertex 6.449060e-001 3.055153e-001 5.000000e-002
      endloop
   endfacet
   facet normal 4.227595e-002 9.991060e-001 0.000000e+000
      outer loop
         vertex 6.353418e-001 3.058816e-001 -5.000000e-002
         vertex 6.449060e-001 3.055153e-001 5.000000e-002
         vertex 6.449060e-001 3.055153e-001 -5.000000e-002
      endloop
   endfacet
   facet normal 6.028952e-002 9.981809e-001 0.000000e+000
      outer loop
         vertex 6.449060e-001 3.055153e-001 -5.000000e-002
         vertex 6.449060e-001 3.055153e-001 5.000000e-002
         vertex 6.565777e-001 3.047529e-001 5.000000e-002
      endloop
   endfacet
   facet normal 6.860282e-002 9.976441e-001 0.000000e+000
      outer loop
         vertex 6.449060e-001 3.055153e-001 -5.000000e-002
         vertex 6.565777e-001 3.047529e-001 5.000000e-002
         vertex 6.565777e-001 3.047529e-001 -5.000000e-002
      endloop
   endfacet
   facet normal 8.396834e-002 9.964684e-001 0.000000e+000
      outer loop
         vertex 6.565777e-001 3.047529e-001 -5.000000e-002
         vertex 6.565777e-001 3.047529e-001 5.000000e-002
         vertex 6.702905e-001 3.035420e-001 5.000000e-002
      endloop
   endfacet
   facet normal 9.102207e-002 9.958489e-001 0.000000e+000
      outer loop
         vertex 6.565777e-001 3.047529e-001 -5.000000e-002
         vertex 6.702905e-001 3.035420e-001 5.000000e-002
         vertex 6.702905e-001 3.035420e-001 -5.000000e-002
      endloop
   endfacet
   facet normal 1.047179e-001 9.945020e-001 0.000000e+000
      outer loop
         vertex 6.702905e-001 3.035420e-001 -5.000000e-002
         vertex 6.702905e-001 3.035420e-001 5.000000e-002
         vertex 6.851869e-001 3.019229e-001 5.000000e-002
      endloop
   endfacet
   facet normal 1.113605e-001 9.937801e-001 0.000000e+000
      outer loop
         vertex 6.702905e-001 3.035420e-001 -5.000000e-002
         vertex 6.851869e-001 3.019229e-001 5.000000e-002
         vertex 6.851869e-001 3.019229e-001 -5.000000e-002
      endloop
   endfacet
   facet normal 1.250367e-001 9.921521e-001 0.000000e+000
      outer loop
         vertex 6.851869e-001 3.019229e-001 -5.000000e-002
         vertex 6.851869e-001 3.019229e-001 5.000000e-002
         vertex 6.991109e-001 3.001249e-001 5.000000e-002
      endloop
   endfacet
   facet normal 1.320697e-001 9.912404e-001 0.000000e+000
      outer loop
         vertex 6.851869e-001 3.019229e-001 -5.000000e-002
         vertex 6.991109e-001 3.001249e-001 5.000000e-002
         vertex 6.991109e-001 3.001249e-001 -5.000000e-002
      endloop
   endfacet
   facet normal 1.390957e-001 9.902790e-001 0.000000e+000
      outer loop
         vertex 7.000000e-001 3.000000e-001 -5.000000e-002
         vertex 6.991109e-001 3.001249e-001 -5.000000e-002
         vertex 7.000000e-001 3.000000e-001 5.000000e-002
      endloop
   endfacet
   facet normal 1.390957e-001 9.902790e-001 0.000000e+000
      outer loop
         vertex 7.000000e-001 3.000000e-001 5.000000e-002
         vertex 6.991109e-001 3.001249e-001 -5.000000e-002
         vertex 6.991109e-001 3.001249e-001 5.000000e-002
      endloop
   endfacet
   facet normal 1.390957e-001 -9.902790e-001 0.000000e+000
      outer loop
         vertex 6.991109e-001 2.998751e-001 -5.000000e-002
         vertex 7.000000e-001 3.000000e-001 -5.000000e-002
         vertex 6.991109e-001 2.998751e-001 5.000000e-002
      endloop
   endfacet
   facet normal 1.390957e-001 -9.902790e-001 0.000000e+000
      outer loop
         vertex 6.991109e-001 2.998751e-001 5.000000e-002
         vertex 7.000000e-001 3.000000e-001 -5.000000e-002
         vertex 7.000000e-001 3.000000e-001 5.000000e-002
      endloop
   endfacet
   facet normal 0.000000e+000 0.000000e+000 -1.000000e+000
      outer loop
         vertex 6.991109e-001 3.001249e-001 -5.000000e-002
         vertex 7.000000e-001 3.000000e-001 -5.000000e-002
         vertex 6.991109e-001 2.998751e-001 -5.000000e-002
      endloop
   endfacet
   facet normal 0.000000e+000 0.000000e+000 -1.000000e+000
      outer loop
         vertex 6.991109e-001 3.001249e-001 -5.000000e-002
         vertex 6.991109e-001 2.998751e-001 -5.000000e-002
         vertex 6.851869e-001 3.019229e-001 -5.000000e-002
      endloop
   endfacet
   facet normal 0.000000e+000 0.000000e+000 -1.000000e+000
      outer loop
         vertex 6.991109e-001 2.998751e-001 -5.000000e-002
         vertex 6.953667e-001 2.993617e-001 -5.000000e-002
         vertex 6.851869e-001 3.019229e-001 -5.000000e-002
      endloop
   endfacet
   facet normal 0.000000e+000 0.000000e+000 -1.000000e+000
      outer loop
         vertex 6.851869e-001 3.019229e-001 -5.000000e-002
         vertex 6.953667e-001 2.993617e-001 -5.000000e-002
         vertex 6.811172e-001 2.976050e-001 -5.000000e-002
      endloop
   endfacet
   facet normal 0.000000e+000 0.000000e+000 -1.000000e+000
      outer loop
         vertex 6.851869e-001 3.019229e-001 -5.000000e-002
         vertex 6.811172e-001 2.976050e-001 -5.000000e-002
         vertex 6.702905e-001 3.035420e-001 -5.000000e-002
      endloop
   endfacet
   facet normal 0.000000e+000 0.000000e+000 -1.000000e+000
      outer loop
         vertex 6.702905e-001 3.035420e-001 -5.000000e-002
         vertex 6.811172e-001 2.976050e-001 -5.000000e-002
         vertex 6.667651e-001 2.961194e-001 -5.000000e-002
      endloop
   endfacet
   facet normal 0.000000e+000 0.000000e+000 -1.000000e+000
      outer loop
         vertex 6.702905e-001 3.035420e-001 -5.000000e-002
         vertex 6.667651e-001 2.961194e-001 -5.000000e-002
         vertex 6.565777e-001 3.047529e-001 -5.000000e-002
      endloop
   endfacet
   facet normal 0.000000e+000 0.000000e+000 -1.000000e+000
      outer loop
         vertex 6.565777e-001 3.047529e-001 -5.000000e-002
         vertex 6.667651e-001 2.961194e-001 -5.000000e-002
         vertex 6.546392e-001 2.951010e-001 -5.000000e-002
      endloop
   endfacet
   facet normal 0.000000e+000 0.000000e+000 -1.000000e+000
      outer loop
         vertex 6.565777e-001 3.047529e-001 -5.000000e-002
         vertex 6.546392e-001 2.951010e-001 -5.000000e-002
         vertex 6.449060e-001 3.055153e-001 -5.000000e-002
      endloop
   endfacet
   facet normal 0.000000e+000 0.000000e+000 -1.000000e+000
      outer loop
         vertex 6.449060e-001 3.055153e-001 -5.000000e-002
         vertex 6.546392e-001 2.951010e-001 -5.000000e-002
         vertex 6.430788e-001 2.943940e-001 -5.000000e-002
      endloop
   endfacet
   facet normal 0.000000e+000 0.000000e+000 -1.000000e+000
      outer loop
         vertex 6.449060e-001 3.055153e-001 -5.000000e-002
         vertex 6.430788e-001 2.943940e-001 -5.000000e-002
         vertex 6.353418e-001 3.058816e-001 -5.000000e-002
      endloop
   endfacet
   facet normal 0.000000e+000 0.000000e+000 -1.000000e+000
      outer loop
         vertex 6.353418e-001 3.058816e-001 -5.000000e-002
         vertex 6.430788e-001 2.943940e-001 -5.000000e-002
         vertex 6.330877e-001 2.940763e-001 -5.000000e-002
      endloop
   endfacet
   facet normal 0.000000e+000 0.000000e+000 -1.000000e+000
      outer loop
         vertex 6.353418e-001 3.058816e-001 -5.000000e-002
         vertex 6.330877e-001 2.940763e-001 -5.000000e-002
         vertex 6.272670e-001 3.059342e-001 -5.000000e-002
      endloop
   endfacet
   facet normal 0.000000e+000 0.000000e+000 -1.000000e+000
      outer loop
         vertex 6.272670e-001 3.059342e-001 -5.000000e-002
         vertex 6.330877e-001 2.940763e-001 -5.000000e-002
         vertex 6.247833e-001 2.941114e-001 -5.000000e-002
      endloop
   endfacet
   facet normal 0.000000e+000 0.000000e+000 -1.000000e+000
      outer loop
         vertex 6.272670e-001 3.059342e-001 -5.000000e-002
         vertex 6.247833e-001 2.941114e-001 -5.000000e-002
         vertex 6.199628e-001 3.056946e-001 -5.000000e-002
      endloop
   endfacet
   facet normal 0.000000e+000 0.000000e+000 -1.000000e+000
      outer loop
         vertex 6.199628e-001 3.056946e-001 -5.000000e-002
         vertex 6.247833e-001 2.941114e-001 -5.000000e-002
         vertex 6.179098e-001 2.944381e-001 -5.000000e-002
      endloop
   endfacet
   facet normal 0.000000e+000 0.000000e+000 -1.000000e+000
      outer loop
         vertex 6.199628e-001 3.056946e-001 -5.000000e-002
         vertex 6.179098e-001 2.944381e-001 -5.000000e-002
         vertex 6.144536e-001 3.052547e-001 -5.000000e-002
      endloop
   endfacet
   facet normal 0.000000e+000 0.000000e+000 -1.000000e+000
      outer loop
         vertex 6.179098e-001 2.944381e-001 -5.000000e-002
         vertex 6.129875e-001 2.949134e-001 -5.000000e-002
         vertex 6.144536e-001 3.052547e-001 -5.000000e-002
      endloop
   endfacet
   facet normal 0.000000e+000 0.000000e+000 -1.000000e+000
      outer loop
         vertex 6.144536e-001 3.052547e-001 -5.000000e-002
         vertex 6.129875e-001 2.949134e-001 -5.000000e-002
         vertex 6.103812e-001 2.952814e-001 -5.000000e-002
      endloop
   endfacet
   facet normal 0.000000e+000 0.000000e+000 -1.000000e+000
      outer loop
         vertex 6.144536e-001 3.052547e-001 -5.000000e-002
         vertex 6.103812e-001 2.952814e-001 -5.000000e-002
         vertex 6.098855e-001 3.046368e-001 -5.000000e-002
      endloop
   endfacet
   facet normal 0.000000e+000 0.000000e+000 -1.000000e+000
      outer loop
         vertex 6.098855e-001 3.046368e-001 -5.000000e-002
         vertex 6.103812e-001 2.952814e-001 -5.000000e-002
         vertex 6.065619e-001 2.960400e-001 -5.000000e-002
      endloop
   endfacet
   facet normal 0.000000e+000 0.000000e+000 -1.000000e+000
      outer loop
         vertex 6.098855e-001 3.046368e-001 -5.000000e-002
         vertex 6.065619e-001 2.960400e-001 -5.000000e-002
         vertex 6.065812e-001 3.039647e-001 -5.000000e-002
      endloop
   endfacet
   facet normal 0.000000e+000 0.000000e+000 -1.000000e+000
      outer loop
         vertex 6.065812e-001 3.039647e-001 -5.000000e-002
         vertex 6.065619e-001 2.960400e-001 -5.000000e-002
         vertex 6.043022e-001 2.966848e-001 -5.000000e-002
      endloop
   endfacet
   facet normal 0.000000e+000 0.000000e+000 -1.000000e+000
      outer loop
         vertex 6.065812e-001 3.039647e-001 -5.000000e-002
         vertex 6.000925e-001 2.994677e-001 -5.000000e-002
         vertex 6.000255e-001 2.997193e-001 -5.000000e-002
      endloop
   endfacet
   facet normal 0.000000e+000 0.000000e+000 -1.000000e+000
      outer loop
         vertex 6.000907e-001 3.005272e-001 -5.000000e-002
         vertex 6.002060e-001 3.007893e-001 -5.000000e-002
         vertex 6.040000e-001 3.032115e-001 -5.000000e-002
      endloop
   endfacet
   facet normal 0.000000e+000 0.000000e+000 -1.000000e+000
      outer loop
         vertex 6.040000e-001 3.032115e-001 -5.000000e-002
         vertex 6.002060e-001 3.007893e-001 -5.000000e-002
         vertex 6.003877e-001 3.010746e-001 -5.000000e-002
      endloop
   endfacet
   facet normal 0.000000e+000 0.000000e+000 -1.000000e+000
      outer loop
         vertex 6.040000e-001 3.032115e-001 -5.000000e-002
         vertex 6.003877e-001 3.010746e-001 -5.000000e-002
         vertex 6.022067e-001 3.024575e-001 -5.000000e-002
      endloop
   endfacet
   facet normal 0.000000e+000 0.000000e+000 -1.000000e+000
      outer loop
         vertex 6.022067e-001 3.024575e-001 -5.000000e-002
         vertex 6.003877e-001 3.010746e-001 -5.000000e-002
         vertex 6.006619e-001 3.013919e-001 -5.000000e-002
      endloop
   endfacet
   facet normal 0.000000e+000 0.000000e+000 -1.000000e+000
      outer loop
         vertex 6.022067e-001 3.024575e-001 -5.000000e-002
         vertex 6.006619e-001 3.013919e-001 -5.000000e-002
         vertex 6.011675e-001 3.018252e-001 -5.000000e-002
      endloop
   endfacet
   facet normal 0.000000e+000 0.000000e+000 -1.000000e+000
      outer loop
         vertex 6.043022e-001 2.966848e-001 -5.000000e-002
         vertex 6.023299e-001 2.974804e-001 -5.000000e-002
         vertex 6.065812e-001 3.039647e-001 -5.000000e-002
      endloop
   endfacet
   facet normal 0.000000e+000 0.000000e+000 -1.000000e+000
      outer loop
         vertex 6.065812e-001 3.039647e-001 -5.000000e-002
         vertex 6.023299e-001 2.974804e-001 -5.000000e-002
         vertex 6.012928e-001 2.980848e-001 -5.000000e-002
      endloop
   endfacet
   facet normal 0.000000e+000 0.000000e+000 -1.000000e+000
      outer loop
         vertex 6.065812e-001 3.039647e-001 -5.000000e-002
         vertex 6.012928e-001 2.980848e-001 -5.000000e-002
         vertex 6.007285e-001 2.985425e-001 -5.000000e-002
      endloop
   endfacet
   facet normal 0.000000e+000 0.000000e+000 -1.000000e+000
      outer loop
         vertex 6.000255e-001 2.997193e-001 -5.000000e-002
         vertex 6.000003e-001 2.999707e-001 -5.000000e-002
         vertex 6.065812e-001 3.039647e-001 -5.000000e-002
      endloop
   endfacet
   facet normal 0.000000e+000 0.000000e+000 -1.000000e+000
      outer loop
         vertex 6.065812e-001 3.039647e-001 -5.000000e-002
         vertex 6.000003e-001 2.999707e-001 -5.000000e-002
         vertex 6.000000e-001 3.000098e-001 -5.000000e-002
      endloop
   endfacet
   facet normal 0.000000e+000 0.000000e+000 -1.000000e+000
      outer loop
         vertex 6.065812e-001 3.039647e-001 -5.000000e-002
         vertex 6.000000e-001 3.000098e-001 -5.000000e-002
         vertex 6.040000e-001 3.032115e-001 -5.000000e-002
      endloop
   endfacet
   facet normal 0.000000e+000 0.000000e+000 -1.000000e+000
      outer loop
         vertex 6.040000e-001 3.032115e-001 -5.000000e-002
         vertex 6.000000e-001 3.000098e-001 -5.000000e-002
         vertex 6.000253e-001 3.002796e-001 -5.000000e-002
      endloop
   endfacet
   facet normal 0.000000e+000 0.000000e+000 -1.000000e+000
      outer loop
         vertex 6.040000e-001 3.032115e-001 -5.000000e-002
         vertex 6.000253e-001 3.002796e-001 -5.000000e-002
         vertex 6.000907e-001 3.005272e-001 -5.000000e-002
      endloop
   endfacet
   facet normal 0.000000e+000 0.000000e+000 -1.000000e+000
      outer loop
         vertex 6.007285e-001 2.985425e-001 -5.000000e-002
         vertex 6.003993e-001 2.989099e-001 -5.000000e-002
         vertex 6.065812e-001 3.039647e-001 -5.000000e-002
      endloop
   endfacet
   facet normal 0.000000e+000 0.000000e+000 -1.000000e+000
      outer loop
         vertex 6.065812e-001 3.039647e-001 -5.000000e-002
         vertex 6.003993e-001 2.989099e-001 -5.000000e-002
         vertex 6.002015e-001 2.992193e-001 -5.000000e-002
      endloop
   endfacet
   facet normal 0.000000e+000 0.000000e+000 -1.000000e+000
      outer loop
         vertex 6.065812e-001 3.039647e-001 -5.000000e-002
         vertex 6.002015e-001 2.992193e-001 -5.000000e-002
         vertex 6.000925e-001 2.994677e-001 -5.000000e-002
      endloop
   endfacet
   facet normal 0.000000e+000 0.000000e+000 1.000000e+000
      outer loop
         vertex 6.851869e-001 3.019229e-001 5.000000e-002
         vertex 6.953667e-001 2.993617e-001 5.000000e-002
         vertex 6.991109e-001 3.001249e-001 5.000000e-002
      endloop
   endfacet
   facet normal 0.000000e+000 0.000000e+000 1.000000e+000
      outer loop
         vertex 6.991109e-001 3.001249e-001 5.000000e-002
         vertex 6.953667e-001 2.993617e-001 5.000000e-002
         vertex 6.991109e-001 2.998751e-001 5.000000e-002
      endloop
   endfacet
   facet normal 0.000000e+000 0.000000e+000 1.000000e+000
      outer loop
         vertex 6.991109e-001 3.001249e-001 5.000000e-002
         vertex 6.991109e-001 2.998751e-001 5.000000e-002
         vertex 7.000000e-001 3.000000e-001 5.000000e-002
      endloop
   endfacet
   facet normal 0.000000e+000 0.000000e+000 1.000000e+000
      outer loop
         vertex 6.065812e-001 3.039647e-001 5.000000e-002
         vertex 6.065619e-001 2.960400e-001 5.000000e-002
         vertex 6.098855e-001 3.046368e-001 5.000000e-002
      endloop
   endfacet
   facet normal 0.000000e+000 0.000000e+000 1.000000e+000
      outer loop
         vertex 6.098855e-001 3.046368e-001 5.000000e-002
         vertex 6.065619e-001 2.960400e-001 5.000000e-002
         vertex 6.103812e-001 2.952814e-001 5.000000e-002
      endloop
   endfacet
   facet normal 0.000000e+000 0.000000e+000 1.000000e+000
      outer loop
         vertex 6.098855e-001 3.046368e-001 5.000000e-002
         vertex 6.103812e-001 2.952814e-001 5.000000e-002
         vertex 6.144536e-001 3.052547e-001 5.000000e-002
      endloop
   endfacet
   facet normal 0.000000e+000 0.000000e+000 1.000000e+000
      outer loop
         vertex 6.144536e-001 3.052547e-001 5.000000e-002
         vertex 6.103812e-001 2.952814e-001 5.000000e-002
         vertex 6.129875e-001 2.949134e-001 5.000000e-002
      endloop
   endfacet
   facet normal 0.000000e+000 0.000000e+000 1.000000e+000
      outer loop
         vertex 6.144536e-001 3.052547e-001 5.000000e-002
         vertex 6.129875e-001 2.949134e-001 5.000000e-002
         vertex 6.199628e-001 3.056946e-001 5.000000e-002
      endloop
   endfacet
   facet normal 0.000000e+000 0.000000e+000 1.000000e+000
      outer loop
         vertex 6.199628e-001 3.056946e-001 5.000000e-002
         vertex 6.129875e-001 2.949134e-001 5.000000e-002
         vertex 6.179098e-001 2.944381e-001 5.000000e-002
      endloop
   endfacet
   facet normal 0.000000e+000 0.000000e+000 1.000000e+000
      outer loop
         vertex 6.199628e-001 3.056946e-001 5.000000e-002
         vertex 6.179098e-001 2.944381e-001 5.000000e-002
         vertex 6.272670e-001 3.059342e-001 5.000000e-002
      endloop
   endfacet
   facet normal 0.000000e+000 0.000000e+000 1.000000e+000
      outer loop
         vertex 6.272670e-001 3.059342e-001 5.000000e-002
         vertex 6.179098e-001 2.944381e-001 5.000000e-002
         vertex 6.247833e-001 2.941114e-001 5.000000e-002
      endloop
   endfacet
   facet normal 0.000000e+000 0.000000e+000 1.000000e+000
      outer loop
         vertex 6.272670e-001 3.059342e-001 5.000000e-002
         vertex 6.247833e-001 2.941114e-001 5.000000e-002
         vertex 6.353418e-001 3.058816e-001 5.000000e-002
      endloop
   endfacet
   facet normal 0.000000e+000 0.000000e+000 1.000000e+000
      outer loop
         vertex 6.353418e-001 3.058816e-001 5.000000e-002
         vertex 6.247833e-001 2.941114e-001 5.000000e-002
         vertex 6.330877e-001 2.940763e-001 5.000000e-002
      endloop
   endfacet
   facet normal 0.000000e+000 0.000000e+000 1.000000e+000
      outer loop
         vertex 6.353418e-001 3.058816e-001 5.000000e-002
         vertex 6.330877e-001 2.940763e-001 5.000000e-002
         vertex 6.449060e-001 3.055153e-001 5.000000e-002
      endloop
   endfacet
   facet normal 0.000000e+000 0.000000e+000 1.000000e+000
      outer loop
         vertex 6.449060e-001 3.055153e-001 5.000000e-002
         vertex 6.330877e-001 2.940763e-001 5.000000e-002
         vertex 6.430788e-001 2.943940e-001 5.000000e-002
      endloop
   endfacet
   facet normal 0.000000e+000 0.000000e+000 1.000000e+000
      outer loop
         vertex 6.449060e-001 3.055153e-001 5.000000e-002
         vertex 6.430788e-001 2.943940e-001 5.000000e-002
         vertex 6.565777e-001 3.047529e-001 5.000000e-002
      endloop
   endfacet
   facet normal 0.000000e+000 0.000000e+000 1.000000e+000
      outer loop
         vertex 6.565777e-001 3.047529e-001 5.000000e-002
         vertex 6.430788e-001 2.943940e-001 5.000000e-002
         vertex 6.546392e-001 2.951010e-001 5.000000e-002
      endloop
   endfacet
   facet normal 0.000000e+000 0.000000e+000 1.000000e+000
      outer loop
         vertex 6.565777e-001 3.047529e-001 5.000000e-002
         vertex 6.546392e-001 2.951010e-001 5.000000e-002
         vertex 6.702905e-001 3.035420e-001 5.000000e-002
      endloop
   endfacet
   facet normal 0.000000e+000 0.000000e+000 1.000000e+000
      outer loop
         vertex 6.702905e-001 3.035420e-001 5.000000e-002
         vertex 6.546392e-001 2.951010e-001 5.000000e-002
         vertex 6.667651e-001 2.961194e-001 5.000000e-002
      endloop
   endfacet
   facet normal 0.000000e+000 0.000000e+000 1.000000e+000
      outer loop
         vertex 6.702905e-001 3.035420e-001 5.000000e-002
         vertex 6.667651e-001 2.961194e-001 5.000000e-002
         vertex 6.851869e-001 3.019229e-001 5.000000e-002
      endloop
   endfacet
   facet normal 0.000000e+000 0.000000e+000 1.000000e+000
      outer loop
         vertex 6.851869e-001 3.019229e-001 5.000000e-002
         vertex 6.667651e-001 2.961194e-001 5.000000e-002
         vertex 6.811172e-001 2.976050e-001 5.000000e-002
      endloop
   endfacet
   facet normal 0.000000e+000 0.000000e+000 1.000000e+000
      outer loop
         vertex 6.851869e-001 3.019229e-001 5.000000e-002
         vertex 6.811172e-001 2.976050e-001 5.000000e-002
         vertex 6.953667e-001 2.993617e-001 5.000000e-002
      endloop
   endfacet
   facet normal 0.000000e+000 0.000000e+000 1.000000e+000
      outer loop
         vertex 6.012928e-001 2.980848e-001 5.000000e-002
         vertex 6.023299e-001 2.974804e-001 5.000000e-002
         vertex 6.065812e-001 3.039647e-001 5.000000e-002
      endloop
   endfacet
   facet normal 0.000000e+000 0.000000e+000 1.000000e+000
      outer loop
         vertex 6.065812e-001 3.039647e-001 5.000000e-002
         vertex 6.023299e-001 2.974804e-001 5.000000e-002
         vertex 6.043022e-001 2.966848e-001 5.000000e-002
      endloop
   endfacet
   facet normal 0.000000e+000 0.000000e+000 1.000000e+000
      outer loop
         vertex 6.065812e-001 3.039647e-001 5.000000e-002
         vertex 6.043022e-001 2.966848e-001 5.000000e-002
         vertex 6.065619e-001 2.960400e-001 5.000000e-002
      endloop
   endfacet
   facet normal 0.000000e+000 0.000000e+000 1.000000e+000
      outer loop
         vertex 6.011675e-001 3.018252e-001 5.000000e-002
         vertex 6.006619e-001 3.013919e-001 5.000000e-002
         vertex 6.022067e-001 3.024575e-001 5.000000e-002
      endloop
   endfacet
   facet normal 0.000000e+000 0.000000e+000 1.000000e+000
      outer loop
         vertex 6.022067e-001 3.024575e-001 5.000000e-002
         vertex 6.006619e-001 3.013919e-001 5.000000e-002
         vertex 6.003877e-001 3.010746e-001 5.000000e-002
      endloop
   endfacet
   facet normal 0.000000e+000 0.000000e+000 1.000000e+000
      outer loop
         vertex 6.022067e-001 3.024575e-001 5.000000e-002
         vertex 6.003877e-001 3.010746e-001 5.000000e-002
         vertex 6.040000e-001 3.032115e-001 5.000000e-002
      endloop
   endfacet
   facet normal 0.000000e+000 0.000000e+000 1.000000e+000
      outer loop
         vertex 6.040000e-001 3.032115e-001 5.000000e-002
         vertex 6.003877e-001 3.010746e-001 5.000000e-002
         vertex 6.002060e-001 3.007893e-001 5.000000e-002
      endloop
   endfacet
   facet normal 0.000000e+000 0.000000e+000 1.000000e+000
      outer loop
         vertex 6.040000e-001 3.032115e-001 5.000000e-002
         vertex 6.002060e-001 3.007893e-001 5.000000e-002
         vertex 6.000907e-001 3.005272e-001 5.000000e-002
      endloop
   endfacet
   facet normal 0.000000e+000 0.000000e+000 1.000000e+000
      outer loop
         vertex 6.000255e-001 2.997193e-001 5.000000e-002
         vertex 6.000925e-001 2.994677e-001 5.000000e-002
         vertex 6.065812e-001 3.039647e-001 5.000000e-002
      endloop
   endfacet
   facet normal 0.000000e+000 0.000000e+000 1.000000e+000
      outer loop
         vertex 6.065812e-001 3.039647e-001 5.000000e-002
         vertex 6.000925e-001 2.994677e-001 5.000000e-002
         vertex 6.002015e-001 2.992193e-001 5.000000e-002
      endloop
   endfacet
   facet normal 0.000000e+000 0.000000e+000 1.000000e+000
      outer loop
         vertex 6.000907e-001 3.005272e-001 5.000000e-002
         vertex 6.000253e-001 3.002796e-001 5.000000e-002
         vertex 6.040000e-001 3.032115e-001 5.000000e-002
      endloop
   endfacet
   facet normal 0.000000e+000 0.000000e+000 1.000000e+000
      outer loop
         vertex 6.040000e-001 3.032115e-001 5.000000e-002
         vertex 6.000253e-001 3.002796e-001 5.000000e-002
         vertex 6.000000e-001 3.000098e-001 5.000000e-002
      endloop
   endfacet
   facet normal 0.000000e+000 0.000000e+000 1.000000e+000
      outer loop
         vertex 6.040000e-001 3.032115e-001 5.000000e-002
         vertex 6.000000e-001 3.000098e-001 5.000000e-002
         vertex 6.065812e-001 3.039647e-001 5.000000e-002
      endloop
   endfacet
   facet normal 0.000000e+000 0.000000e+000 1.000000e+000
      outer loop
         vertex 6.065812e-001 3.039647e-001 5.000000e-002
         vertex 6.000000e-001 3.000098e-001 5.000000e-002
         vertex 6.000003e-001 2.999707e-001 5.000000e-002
      endloop
   endfacet
   facet normal 0.000000e+000 0.000000e+000 1.000000e+000
      outer loop
         vertex 6.065812e-001 3.039647e-001 5.000000e-002
         vertex 6.000003e-001 2.999707e-001 5.000000e-002
         vertex 6.000255e-001 2.997193e-001 5.000000e-002
      endloop
   endfacet
   facet normal 0.000000e+000 0.000000e+000 1.000000e+000
      outer loop
         vertex 6.002015e-001 2.992193e-001 5.000000e-002
         vertex 6.003993e-001 2.989099e-001 5.000000e-002
         vertex 6.065812e-001 3.039647e-001 5.000000e-002
      endloop
   endfacet
   facet normal 0.000000e+000 0.000000e+000 1.000000e+000
      outer loop
         vertex 6.065812e-001 3.039647e-001 5.000000e-002
         vertex 6.003993e-001 2.989099e-001 5.000000e-002
         vertex 6.007285e-001 2.985425e-001 5.000000e-002
      endloop
   endfacet
   facet normal 0.000000e+000 0.000000e+000 1.000000e+000
      outer loop
         vertex 6.065812e-001 3.039647e-001 5.000000e-002
         vertex 6.007285e-001 2.985425e-001 5.000000e-002
         vertex 6.012928e-001 2.980848e-001 5.000000e-002
      endloop
   endfacet
endsolid